<?xml version="1.0" encoding="utf-8"?>
<!-- Generator: Adobe Illustrator 26.5.0, SVG Export Plug-In . SVG Version: 6.00 Build 0)  -->
<svg version="1.1" id="Ebene_1" xmlns="http://www.w3.org/2000/svg" xmlns:xlink="http://www.w3.org/1999/xlink" x="0px" y="0px"
	 viewBox="0 0 628.8 571.6" style="enable-background:new 0 0 628.8 571.6;" xml:space="preserve">
<g transform="translate(0.000000,853.000000) scale(0.100000,-0.100000)">
	<path fill="#ffffff" d="M2928.6,8494.8c-76.5-25.5-153.1-53.9-170.1-68c-14.2-11.3-212.6-119.1-439.4-235.3C598.3,7290,153.2,7046.2,96.5,6972.5
		c-53.9-73.7-59.5-124.7-68-623.7c-14.2-762.6,2.8-799.5,518.8-1068.8c155.9-82.2,348.7-184.3,425.2-226.8
		c79.4-42.5,275-147.4,439.4-232.5c561.3-297.7,722.9-382.7,1091.5-581.2c445.1-241,615.2-286.3,847.6-224
		c87.9,22.7,360,147.4,606.7,280.7C4794,4747,5811.7,5280,5837.2,5280c14.2,0,25.5-107.7,25.5-238.1v-238.1l-119.1-70.9
		c-68-36.9-300.5-161.6-518.8-275c-218.3-113.4-459.3-241-538.6-283.5c-76.5-42.5-331.7-178.6-567-297.7
		c-232.5-121.9-493.3-258-578.3-303.3c-130.4-68-187.1-79.4-368.5-79.4c-155.9,0-246.6,14.2-314.7,51
		c-172.9,90.7-2273.6,1213.4-2472.1,1321.1C28.4,5058.9,17.1,5041.9,28.4,4353c11.3-635,31.2-697.4,280.7-861.8
		c317.5-209.8,1221.9-677.6,1312.6-677.6c87.9,0,215.5,113.4,215.5,192.8c0,121.9-59.5,158.8-992.2,649.2
		c-405.4,215.5-419.6,229.6-428.1,484.8c-2.8,110.6,0,212.6,8.5,221.1c14.2,14.2,121.9-39.7,589.7-292
		c85-45.4,354.4-189.9,595.3-320.3c241-127.6,504.6-269.3,581.2-311.8c842-459.3,1031.9-487.6,1528-229.6
		c541.5,283.5,1156.7,601,1703.8,881.7C6310.7,4540.1,6288,4508.9,6288,5229c0,467.8-5.7,510.3-56.7,561.3c-85,85-207,68-447.9-62.4
		c-1199.2-646.4-2367.2-1250.2-2463.6-1278.6c-170.1-45.4-368.5,2.8-646.4,155.9c-246.6,138.9-598.2,326-978.1,527.3
		c-700.2,368.5-1173.7,629.4-1207.7,666.2c-45.4,48.2-76.5,501.8-34,501.8c17,0,209.8-96.4,430.9-215.5
		c586.8-320.3,640.7-348.7,1151-620.9c921.4-496.1,893-481.9,1131.1-481.9c175.8,0,241,14.2,357.2,73.7
		c172.9,87.9,620.9,326,836.3,442.3c85,48.2,297.7,158.8,467.8,249.5c172.9,90.7,362.9,192.8,425.2,226.8
		c62.4,34,289.2,155.9,507.5,269.3c439.4,235.3,527.3,323.2,527.3,527.3c0,221.1,5.7,215.5-1204.9,833.5
		c-405.4,207-825,425.2-935.5,481.9C3291.4,8543,3189.4,8577,2928.6,8494.8z M3679.8,7865.5c195.6-104.9,742.8-388.4,1219-632.2
		c476.3-243.8,867.5-462.1,873.2-481.9c2.8-22.7-22.7-53.9-56.7-68c-68-34-918.5-473.4-1272.9-660.5
		c-116.2-62.4-348.7-184.3-521.6-277.8c-572.7-303.3-680.4-351.5-771.1-351.5c-85,0-170.1,39.7-717.2,331.7
		c-221.1,119.1-1227.5,649.2-1644.3,867.5c-130.4,70.9-243.8,138.9-249.5,155.9c-2.8,14.2,192.8,133.2,439.4,260.8
		c683.2,357.2,1000.7,524.5,1511,793.8c258,136.1,493.3,255.1,524.5,263.6C3149.7,8103.6,3334,8049.7,3679.8,7865.5z"/>
</g>
</svg>
